<mxfile host="app.diagrams.net" agent="Mozilla/5.0 (X11; Linux x86_64; rv:138.0) Gecko/20100101 Firefox/138.0" version="27.0.6">
  <diagram name="Page-1" id="Xe1Jfhzxk99OiWyexuSZ">
    <mxGraphModel grid="1" page="1" gridSize="10" guides="1" tooltips="1" connect="1" arrows="1" fold="1" pageScale="1" pageWidth="2339" pageHeight="3300" math="0" shadow="0">
      <root>
        <mxCell id="0" />
        <mxCell id="1" parent="0" />
        <mxCell id="iIEkr6UWjthPnYm2rVYJ-1" value="&lt;span style=&quot;color: rgb(0, 127, 255);&quot;&gt;&amp;lt;&amp;lt;Class&amp;gt;&amp;gt;&lt;/span&gt;&lt;div&gt;EqualInstructionWatermarker&lt;/div&gt;" style="swimlane;fontStyle=1;align=center;verticalAlign=top;childLayout=stackLayout;horizontal=1;startSize=40;horizontalStack=0;resizeParent=1;resizeParentMax=0;resizeLast=0;collapsible=1;marginBottom=0;whiteSpace=wrap;html=1;fontFamily=JetBrains Mono;fontSource=https%3A%2F%2Ffonts.googleapis.com%2Fcss%3Ffamily%3DJetBrains%2BMono;rounded=1;fillColor=#F2F2F2;swimlaneFillColor=#F2F2F2;swimlaneLine=1;strokeColor=#7B8691;" vertex="1" parent="1">
          <mxGeometry x="865" y="570" width="240" height="70" as="geometry">
            <mxRectangle x="530" y="920" width="110" height="30" as="alternateBounds" />
          </mxGeometry>
        </mxCell>
        <mxCell id="iIEkr6UWjthPnYm2rVYJ-2" value="&lt;div align=&quot;center&quot;&gt;&lt;b&gt;&lt;font style=&quot;font-size: 14px;&quot;&gt;...&lt;/font&gt;&lt;/b&gt;&lt;/div&gt;" style="text;strokeColor=none;fillColor=none;align=center;verticalAlign=top;spacingLeft=4;spacingRight=4;overflow=hidden;rotatable=0;points=[[0,0.5],[1,0.5]];portConstraint=eastwest;whiteSpace=wrap;html=1;fontFamily=JetBrains Mono;fontSource=https%3A%2F%2Ffonts.googleapis.com%2Fcss%3Ffamily%3DJetBrains%2BMono;rounded=1;swimlaneLine=1;" vertex="1" parent="iIEkr6UWjthPnYm2rVYJ-1">
          <mxGeometry y="40" width="240" height="30" as="geometry" />
        </mxCell>
        <mxCell id="iIEkr6UWjthPnYm2rVYJ-3" value="&lt;span style=&quot;color: rgb(153, 51, 255);&quot;&gt;&amp;lt;&amp;lt;Interface&amp;gt;&amp;gt;&lt;/span&gt;&lt;div&gt;Watermarker&lt;/div&gt;" style="swimlane;fontStyle=1;align=center;verticalAlign=top;childLayout=stackLayout;horizontal=1;startSize=40;horizontalStack=0;resizeParent=1;resizeParentMax=0;resizeLast=0;collapsible=1;marginBottom=0;whiteSpace=wrap;html=1;fontFamily=JetBrains Mono;fontSource=https%3A%2F%2Ffonts.googleapis.com%2Fcss%3Ffamily%3DJetBrains%2BMono;rounded=1;fillColor=#F2F2F2;swimlaneFillColor=#F2F2F2;swimlaneLine=1;strokeColor=#7B8691;" vertex="1" parent="1">
          <mxGeometry x="770" y="270" width="390" height="190" as="geometry">
            <mxRectangle x="530" y="920" width="110" height="30" as="alternateBounds" />
          </mxGeometry>
        </mxCell>
        <mxCell id="iIEkr6UWjthPnYm2rVYJ-4" value="-&amp;gt; METHOD_NAME: str" style="text;strokeColor=none;fillColor=none;align=left;verticalAlign=top;spacingLeft=4;spacingRight=4;overflow=hidden;rotatable=0;points=[[0,0.5],[1,0.5]];portConstraint=eastwest;whiteSpace=wrap;html=1;fontFamily=JetBrains Mono;fontSource=https%3A%2F%2Ffonts.googleapis.com%2Fcss%3Ffamily%3DJetBrains%2BMono;rounded=1;swimlaneLine=1;" vertex="1" parent="iIEkr6UWjthPnYm2rVYJ-3">
          <mxGeometry y="40" width="390" height="30" as="geometry" />
        </mxCell>
        <mxCell id="iIEkr6UWjthPnYm2rVYJ-5" value="-&amp;gt; SUPPORTED_ARCHS: Set[Architecture]" style="text;strokeColor=none;fillColor=none;align=left;verticalAlign=top;spacingLeft=4;spacingRight=4;overflow=hidden;rotatable=0;points=[[0,0.5],[1,0.5]];portConstraint=eastwest;whiteSpace=wrap;html=1;fontFamily=JetBrains Mono;fontSource=https%3A%2F%2Ffonts.googleapis.com%2Fcss%3Ffamily%3DJetBrains%2BMono;rounded=1;swimlaneLine=1;" vertex="1" parent="iIEkr6UWjthPnYm2rVYJ-3">
          <mxGeometry y="70" width="390" height="30" as="geometry" />
        </mxCell>
        <mxCell id="iIEkr6UWjthPnYm2rVYJ-6" value="&lt;span style=&quot;font-size:125%;line-height:1em&quot;&gt;&lt;span style=&quot;color: rgb(0, 204, 0);&quot;&gt;⦿&lt;/span&gt;&lt;/span&gt; encode(&lt;span style=&quot;white-space: pre-wrap&quot;&gt;txt: TextSection, message: bytes&lt;/span&gt;) -&amp;gt; bytes" style="text;strokeColor=none;fillColor=none;align=left;verticalAlign=top;spacingLeft=4;spacingRight=4;overflow=hidden;rotatable=0;points=[[0,0.5],[1,0.5]];portConstraint=eastwest;whiteSpace=wrap;html=1;fontFamily=JetBrains Mono;fontSource=https%3A%2F%2Ffonts.googleapis.com%2Fcss%3Ffamily%3DJetBrains%2BMono;rounded=1;swimlaneLine=1;" vertex="1" parent="iIEkr6UWjthPnYm2rVYJ-3">
          <mxGeometry y="100" width="390" height="30" as="geometry" />
        </mxCell>
        <mxCell id="iIEkr6UWjthPnYm2rVYJ-7" value="&lt;span style=&quot;font-size:125%;line-height:1em&quot;&gt;&lt;span style=&quot;color: rgb(0, 204, 0);&quot;&gt;⦿&lt;/span&gt;&lt;/span&gt; decode(&lt;span style=&quot;white-space: pre-wrap&quot;&gt;txt: TextSection&lt;/span&gt;) -&amp;gt; str" style="text;strokeColor=none;fillColor=none;align=left;verticalAlign=top;spacingLeft=4;spacingRight=4;overflow=hidden;rotatable=0;points=[[0,0.5],[1,0.5]];portConstraint=eastwest;whiteSpace=wrap;html=1;fontFamily=JetBrains Mono;fontSource=https%3A%2F%2Ffonts.googleapis.com%2Fcss%3Ffamily%3DJetBrains%2BMono;rounded=1;swimlaneLine=1;" vertex="1" parent="iIEkr6UWjthPnYm2rVYJ-3">
          <mxGeometry y="130" width="390" height="30" as="geometry" />
        </mxCell>
        <mxCell id="iIEkr6UWjthPnYm2rVYJ-8" value="&lt;span style=&quot;font-size:125%;line-height:1em&quot;&gt;&lt;span style=&quot;color: rgb(0, 204, 0);&quot;&gt;⦿&lt;/span&gt;&lt;/span&gt; get_nbits(&lt;span style=&quot;white-space: pre-wrap&quot;&gt;txt: TextSection&lt;/span&gt;) -&amp;gt; int:" style="text;strokeColor=none;fillColor=none;align=left;verticalAlign=top;spacingLeft=4;spacingRight=4;overflow=hidden;rotatable=0;points=[[0,0.5],[1,0.5]];portConstraint=eastwest;whiteSpace=wrap;html=1;fontFamily=JetBrains Mono;fontSource=https%3A%2F%2Ffonts.googleapis.com%2Fcss%3Ffamily%3DJetBrains%2BMono;rounded=1;swimlaneLine=1;" vertex="1" parent="iIEkr6UWjthPnYm2rVYJ-3">
          <mxGeometry y="160" width="390" height="30" as="geometry" />
        </mxCell>
        <mxCell id="iIEkr6UWjthPnYm2rVYJ-10" value="&lt;span style=&quot;color: rgb(0, 153, 0);&quot;&gt;&amp;lt;&amp;lt;Class&amp;gt;&amp;gt;&lt;/span&gt;&lt;div&gt;WatermarkService&lt;/div&gt;" style="swimlane;fontStyle=1;align=center;verticalAlign=top;childLayout=stackLayout;horizontal=1;startSize=40;horizontalStack=0;resizeParent=1;resizeParentMax=0;resizeLast=0;collapsible=1;marginBottom=0;whiteSpace=wrap;html=1;fontFamily=JetBrains Mono;fontSource=https%3A%2F%2Ffonts.googleapis.com%2Fcss%3Ffamily%3DJetBrains%2BMono;rounded=1;fillColor=#F2F2F2;swimlaneFillColor=#F2F2F2;swimlaneLine=1;strokeColor=#7B8691;" vertex="1" parent="1">
          <mxGeometry x="230" y="270" width="440" height="220" as="geometry">
            <mxRectangle x="530" y="920" width="110" height="30" as="alternateBounds" />
          </mxGeometry>
        </mxCell>
        <mxCell id="iIEkr6UWjthPnYm2rVYJ-11" value="-&amp;gt; _section : TextSection" style="text;strokeColor=none;fillColor=none;align=left;verticalAlign=top;spacingLeft=4;spacingRight=4;overflow=hidden;rotatable=0;points=[[0,0.5],[1,0.5]];portConstraint=eastwest;whiteSpace=wrap;html=1;fontFamily=JetBrains Mono;fontSource=https%3A%2F%2Ffonts.googleapis.com%2Fcss%3Ffamily%3DJetBrains%2BMono;rounded=1;swimlaneLine=1;" vertex="1" parent="iIEkr6UWjthPnYm2rVYJ-10">
          <mxGeometry y="40" width="440" height="30" as="geometry" />
        </mxCell>
        <mxCell id="iIEkr6UWjthPnYm2rVYJ-12" value="-&amp;gt; _strategy : Watermarker" style="text;strokeColor=none;fillColor=none;align=left;verticalAlign=top;spacingLeft=4;spacingRight=4;overflow=hidden;rotatable=0;points=[[0,0.5],[1,0.5]];portConstraint=eastwest;whiteSpace=wrap;html=1;fontFamily=JetBrains Mono;fontSource=https%3A%2F%2Ffonts.googleapis.com%2Fcss%3Ffamily%3DJetBrains%2BMono;rounded=1;swimlaneLine=1;" vertex="1" parent="iIEkr6UWjthPnYm2rVYJ-10">
          <mxGeometry y="70" width="440" height="30" as="geometry" />
        </mxCell>
        <mxCell id="iIEkr6UWjthPnYm2rVYJ-13" value="&lt;span style=&quot;font-size:125%;line-height:1em&quot;&gt;&lt;span style=&quot;color: rgb(0, 204, 0);&quot;&gt;⦿&lt;/span&gt;&lt;/span&gt; __init__(filepath, &lt;span style=&quot;color: light-dark(rgb(119, 118, 123), rgb(237, 237, 237));&quot;&gt;strategy: Watermarker&lt;/span&gt;)" style="text;strokeColor=none;fillColor=none;align=left;verticalAlign=top;spacingLeft=4;spacingRight=4;overflow=hidden;rotatable=0;points=[[0,0.5],[1,0.5]];portConstraint=eastwest;whiteSpace=wrap;html=1;fontFamily=JetBrains Mono;fontSource=https%3A%2F%2Ffonts.googleapis.com%2Fcss%3Ffamily%3DJetBrains%2BMono;rounded=1;swimlaneLine=1;" vertex="1" parent="iIEkr6UWjthPnYm2rVYJ-10">
          <mxGeometry y="100" width="440" height="30" as="geometry" />
        </mxCell>
        <mxCell id="iIEkr6UWjthPnYm2rVYJ-14" value="&lt;span style=&quot;font-size:125%;line-height:1em&quot;&gt;&lt;span style=&quot;color: rgb(0, 204, 0);&quot;&gt;⦿&lt;/span&gt;&lt;/span&gt; get_capacity(strategy: Watermarker) -&amp;gt; int" style="text;strokeColor=none;fillColor=none;align=left;verticalAlign=top;spacingLeft=4;spacingRight=4;overflow=hidden;rotatable=0;points=[[0,0.5],[1,0.5]];portConstraint=eastwest;whiteSpace=wrap;html=1;fontFamily=JetBrains Mono;fontSource=https%3A%2F%2Ffonts.googleapis.com%2Fcss%3Ffamily%3DJetBrains%2BMono;rounded=1;swimlaneLine=1;" vertex="1" parent="iIEkr6UWjthPnYm2rVYJ-10">
          <mxGeometry y="130" width="440" height="30" as="geometry" />
        </mxCell>
        <mxCell id="iIEkr6UWjthPnYm2rVYJ-15" value="&lt;span style=&quot;font-size:125%;line-height:1em&quot;&gt;&lt;span style=&quot;color: rgb(0, 204, 0);&quot;&gt;⦿&lt;/span&gt;&lt;/span&gt; encode_file(message, strategy: Watermarker, dst) -&amp;gt; str" style="text;strokeColor=none;fillColor=none;align=left;verticalAlign=top;spacingLeft=4;spacingRight=4;overflow=hidden;rotatable=0;points=[[0,0.5],[1,0.5]];portConstraint=eastwest;whiteSpace=wrap;html=1;fontFamily=JetBrains Mono;fontSource=https%3A%2F%2Ffonts.googleapis.com%2Fcss%3Ffamily%3DJetBrains%2BMono;rounded=1;swimlaneLine=1;" vertex="1" parent="iIEkr6UWjthPnYm2rVYJ-10">
          <mxGeometry y="160" width="440" height="30" as="geometry" />
        </mxCell>
        <mxCell id="iIEkr6UWjthPnYm2rVYJ-16" value="&lt;span style=&quot;font-size:125%;line-height:1em&quot;&gt;&lt;span style=&quot;color: rgb(0, 204, 0);&quot;&gt;⦿&lt;/span&gt;&lt;/span&gt; decode_file(strategy: Watermarker) -&amp;gt; str" style="text;strokeColor=none;fillColor=none;align=left;verticalAlign=top;spacingLeft=4;spacingRight=4;overflow=hidden;rotatable=0;points=[[0,0.5],[1,0.5]];portConstraint=eastwest;whiteSpace=wrap;html=1;fontFamily=JetBrains Mono;fontSource=https%3A%2F%2Ffonts.googleapis.com%2Fcss%3Ffamily%3DJetBrains%2BMono;rounded=1;swimlaneLine=1;" vertex="1" parent="iIEkr6UWjthPnYm2rVYJ-10">
          <mxGeometry y="190" width="440" height="30" as="geometry" />
        </mxCell>
        <mxCell id="iIEkr6UWjthPnYm2rVYJ-17" value="&lt;span style=&quot;color: rgb(0, 127, 255);&quot;&gt;&amp;lt;&amp;lt;Class&amp;gt;&amp;gt;&lt;/span&gt;&lt;div&gt;EqualInstructionWatermarker&lt;/div&gt;" style="swimlane;fontStyle=1;align=center;verticalAlign=top;childLayout=stackLayout;horizontal=1;startSize=40;horizontalStack=0;resizeParent=1;resizeParentMax=0;resizeLast=0;collapsible=1;marginBottom=0;whiteSpace=wrap;html=1;fontFamily=JetBrains Mono;fontSource=https%3A%2F%2Ffonts.googleapis.com%2Fcss%3Ffamily%3DJetBrains%2BMono;rounded=1;fillColor=#F2F2F2;swimlaneFillColor=#F2F2F2;swimlaneLine=1;strokeColor=#7B8691;" vertex="1" parent="1">
          <mxGeometry x="855" y="560" width="240" height="70" as="geometry">
            <mxRectangle x="530" y="920" width="110" height="30" as="alternateBounds" />
          </mxGeometry>
        </mxCell>
        <mxCell id="iIEkr6UWjthPnYm2rVYJ-18" value="&lt;div align=&quot;center&quot;&gt;&lt;b&gt;&lt;font style=&quot;font-size: 14px;&quot;&gt;...&lt;/font&gt;&lt;/b&gt;&lt;/div&gt;" style="text;strokeColor=none;fillColor=none;align=center;verticalAlign=top;spacingLeft=4;spacingRight=4;overflow=hidden;rotatable=0;points=[[0,0.5],[1,0.5]];portConstraint=eastwest;whiteSpace=wrap;html=1;fontFamily=JetBrains Mono;fontSource=https%3A%2F%2Ffonts.googleapis.com%2Fcss%3Ffamily%3DJetBrains%2BMono;rounded=1;swimlaneLine=1;" vertex="1" parent="iIEkr6UWjthPnYm2rVYJ-17">
          <mxGeometry y="40" width="240" height="30" as="geometry" />
        </mxCell>
        <mxCell id="iIEkr6UWjthPnYm2rVYJ-19" value="" style="edgeStyle=orthogonalEdgeStyle;rounded=0;orthogonalLoop=1;jettySize=auto;html=1;strokeWidth=2;dashed=1;endArrow=block;endFill=0;" edge="1" parent="1" source="iIEkr6UWjthPnYm2rVYJ-20" target="iIEkr6UWjthPnYm2rVYJ-3">
          <mxGeometry relative="1" as="geometry">
            <Array as="points">
              <mxPoint x="965" y="460" />
              <mxPoint x="965" y="460" />
            </Array>
          </mxGeometry>
        </mxCell>
        <mxCell id="iIEkr6UWjthPnYm2rVYJ-20" value="&lt;span style=&quot;color: rgb(0, 127, 255);&quot;&gt;&amp;lt;&amp;lt;Class&amp;gt;&amp;gt;&lt;/span&gt;&lt;div&gt;EqualInstructionWatermarker&lt;/div&gt;" style="swimlane;fontStyle=1;align=center;verticalAlign=top;childLayout=stackLayout;horizontal=1;startSize=40;horizontalStack=0;resizeParent=1;resizeParentMax=0;resizeLast=0;collapsible=1;marginBottom=0;whiteSpace=wrap;html=1;fontFamily=JetBrains Mono;fontSource=https%3A%2F%2Ffonts.googleapis.com%2Fcss%3Ffamily%3DJetBrains%2BMono;rounded=1;fillColor=#F2F2F2;swimlaneFillColor=#F2F2F2;swimlaneLine=1;strokeColor=#7B8691;" vertex="1" parent="1">
          <mxGeometry x="845" y="550" width="240" height="70" as="geometry">
            <mxRectangle x="530" y="920" width="110" height="30" as="alternateBounds" />
          </mxGeometry>
        </mxCell>
        <mxCell id="iIEkr6UWjthPnYm2rVYJ-21" value="&lt;div align=&quot;center&quot;&gt;&lt;b&gt;&lt;font style=&quot;font-size: 14px;&quot;&gt;...&lt;/font&gt;&lt;/b&gt;&lt;/div&gt;" style="text;strokeColor=none;fillColor=none;align=center;verticalAlign=top;spacingLeft=4;spacingRight=4;overflow=hidden;rotatable=0;points=[[0,0.5],[1,0.5]];portConstraint=eastwest;whiteSpace=wrap;html=1;fontFamily=JetBrains Mono;fontSource=https%3A%2F%2Ffonts.googleapis.com%2Fcss%3Ffamily%3DJetBrains%2BMono;rounded=1;swimlaneLine=1;" vertex="1" parent="iIEkr6UWjthPnYm2rVYJ-20">
          <mxGeometry y="40" width="240" height="30" as="geometry" />
        </mxCell>
        <mxCell id="iIEkr6UWjthPnYm2rVYJ-22" value="" style="edgeStyle=orthogonalEdgeStyle;rounded=0;orthogonalLoop=1;jettySize=auto;html=1;strokeColor=#666666;" edge="1" parent="1" source="iIEkr6UWjthPnYm2rVYJ-23" target="iIEkr6UWjthPnYm2rVYJ-10">
          <mxGeometry relative="1" as="geometry" />
        </mxCell>
        <mxCell id="iIEkr6UWjthPnYm2rVYJ-23" value="&lt;div&gt;from ... import Builtin&lt;br&gt;from my_water import MyWatermarker&lt;br&gt;&lt;br&gt;&lt;/div&gt;&lt;div&gt;ws = WatermarkService(file.elf)&lt;/div&gt;&lt;div&gt;ws.encode(&quot;secret&quot;, Builtin.EQ_INSTR)&lt;br&gt;&lt;br&gt;# using our own strategy:&lt;br&gt;ws.encode(&quot;secret&quot;, MyWatermarker)&lt;/div&gt;&lt;div&gt;&lt;br&gt;&lt;/div&gt;" style="shape=note;strokeWidth=2;fontSize=14;size=20;whiteSpace=wrap;html=1;fillColor=#fff2cc;strokeColor=#d6b656;fontColor=#666600;fontFamily=JetBrains Mono;fontSource=https%3A%2F%2Ffonts.googleapis.com%2Fcss%3Ffamily%3DJetBrains%2BMono;align=left;" vertex="1" parent="1">
          <mxGeometry x="286.25" y="560" width="327.5" height="160" as="geometry" />
        </mxCell>
        <mxCell id="iIEkr6UWjthPnYm2rVYJ-24" value="&lt;div&gt;Concrete Strategies&lt;/div&gt;" style="text;html=1;align=center;verticalAlign=middle;whiteSpace=wrap;rounded=0;fontFamily=JetBrains Mono;fontSource=https%3A%2F%2Ffonts.googleapis.com%2Fcss%3Ffamily%3DJetBrains%2BMono;fontStyle=1;fontSize=16;" vertex="1" parent="1">
          <mxGeometry x="840" y="650" width="250" height="30" as="geometry" />
        </mxCell>
        <mxCell id="iIEkr6UWjthPnYm2rVYJ-25" style="edgeStyle=orthogonalEdgeStyle;rounded=0;orthogonalLoop=1;jettySize=auto;html=1;startArrow=diamond;startFill=0;shadow=0;strokeWidth=2;" edge="1" parent="1" source="iIEkr6UWjthPnYm2rVYJ-12" target="iIEkr6UWjthPnYm2rVYJ-3">
          <mxGeometry relative="1" as="geometry">
            <Array as="points">
              <mxPoint x="750" y="355" />
              <mxPoint x="750" y="355" />
            </Array>
          </mxGeometry>
        </mxCell>
      </root>
    </mxGraphModel>
  </diagram>
</mxfile>
